<?xml version="1.0" encoding="utf-8" ?><svg xmlns="http://www.w3.org/2000/svg" xmlns:xlink="http://www.w3.org/1999/xlink" width="478" height="355" viewBox="0 0 478 355"><defs><linearGradient id="gradient_0" gradientUnits="userSpaceOnUse" x1="183.82306" y1="149.09088" x2="442.83618" y2="195.70145"><stop offset="0" stop-color="#1E00A2"/><stop offset="1" stop-color="#0057AD"/></linearGradient></defs><path fill="url(#gradient_0)" d="M266.297 57.3393C270.559 54.9143 274.058 53.5417 278.643 50.6927L293.903 41.149C306.453 33.2483 317.033 27.858 332.139 27.1797C338.56 26.8914 344.844 27.4455 351.049 29.1553C374.741 35.6837 391.566 55.0357 403.267 75.7143C431.864 126.249 445.543 211.867 429.938 268.246C423.839 290.284 412.656 313.699 391.948 325.363C379.981 332.103 368.469 333.976 355.173 330.24C343.63 326.997 334.865 319.769 326.116 311.917C321.229 307.53 316.401 302.869 310.868 299.299C298.041 291.024 279.252 286.438 264.13 284.851C256.903 284.092 249.578 283.965 242.317 283.92C243.083 283.407 249.242 283.709 250.848 283.632C250.199 283.599 248.149 283.545 247.638 283.359C248.877 283.366 250.18 283.611 251 282.989L251.365 283.291L251.536 282.826L251.173 282.403C252.344 281.325 253.175 282.291 254.558 281.18C254.444 280.889 254.352 280.64 254.253 280.343L255.02 280.008C256.149 279.407 259.259 279.837 260.586 279.956C259.733 277.553 266.366 271.695 265.79 268.029C265.514 266.27 265.791 267.484 264.346 266.482C280.519 267.075 301.401 271.318 316.558 276.974C329.035 281.63 340.06 296.222 350.762 303.943C353.79 306.127 357.609 306.637 359.668 307.94C370.31 308.681 378.201 307.269 385.908 299.193C406.357 277.765 410.234 241.985 410.471 213.761C410.58 202.272 409.817 190.791 408.188 179.417C403.4 146.063 388.876 96.2745 364.673 71.7809C353.662 60.6375 344.99 56.6138 329.613 56.5154C321.07 57.4346 318.108 58.939 310.568 62.865C297.766 69.5311 286.157 78.6662 271.903 82.0467C270.29 82.5339 268.347 82.9469 266.673 83.2291C242.595 87.2887 216.07 86.1437 195.219 72.1453C187.154 66.7304 177.365 61.6338 168.129 58.6284C166.769 58.186 165.277 57.9875 163.874 57.5516C162.568 55.9549 155.532 56.9325 154.378 55.9493C155.387 55.4349 160.143 55.3663 161.898 55.176C163.018 55.3353 163.57 55.391 164.705 55.4038C163.841 54.4087 149.483 53.1524 147.256 52.6344C146.399 52.6535 144.325 53.3287 143.745 53.8221C143.457 53.6724 143.27 53.4444 143.03 53.2101C142.023 49.2313 146.424 50.0497 149.112 48.8503L149.364 48.7359C148.187 48.8694 147.128 49.0062 145.96 49.1996C145.068 49.0679 144.932 48.9298 144.196 48.3899C146.126 48.0125 148.143 47.6845 150.086 47.3445C152.294 47.1017 154.475 47.146 156.694 47.1433C156.259 46.9138 153.069 46.8372 152.323 46.8017L156.295 46.75C154.811 45.879 151.198 44.4059 150.187 43.519C150.257 41.5777 151.48 41.9185 152.781 40.5084C155.961 37.0615 158.071 33.0712 160.584 29.181C160.827 28.8051 161.052 28.9339 161.501 28.9226C162.512 28.9102 163.725 28.6107 164.569 28.0394C178.384 29.714 191.387 38.3888 202.576 46.0077C204.712 47.4625 209.779 50.2196 211.498 51.6201L211.702 51.7148C215.197 53.3734 218.599 55.7989 222.267 57.4539C234.9 63.1539 249.936 63.1533 262.95 58.5838C264.073 58.1876 265.189 57.7726 266.297 57.3393Z"/><path fill="#035CC2" d="M353.483 52.5939C356.773 53.8994 358.387 55.425 360.844 56.5667C363.364 56.1979 363.278 57.2073 365.307 57.6548C365.958 58.059 366.408 58.312 366.99 58.8349C371.157 61.7753 375.884 67.1379 379.034 71.1425C398.094 95.3739 410.346 133.33 415.545 163.513C415.775 164.799 415.97 166.09 416.132 167.387C416.293 168.346 416.494 169.399 416.605 170.357C416.898 172.076 417.876 178.83 418.255 180.104C420.548 196.733 421.09 223.659 419.002 240.709C418.34 244.185 417.035 257.471 415.853 259.926C415.062 259.435 416.238 258.761 415.258 256.647C411.463 272.626 406.472 287.995 395.195 300.459C393.008 302.876 389.367 306.484 386.546 308.068L386.523 307.872C386.036 307.59 378.615 312.065 376.878 311.753C374.213 311.275 371.213 311.143 368.548 310.798C369.102 310.762 374.131 309.786 374.3 309.626C372.031 309.404 367.945 310.642 365.537 310.653C364.878 310.655 362.281 309.968 361.523 309.769L361.288 309.928C362 310.845 363.678 311.161 364.884 311.544C364.216 311.585 362.58 312.067 362.194 311.804C360.3 310.515 355.741 310.209 355.93 307.489C356.47 307.297 358.587 308.075 359.343 308.29L359.668 307.94C370.31 308.681 378.201 307.269 385.908 299.193C406.357 277.765 410.234 241.985 410.471 213.761C410.58 202.272 409.817 190.791 408.188 179.417C403.4 146.063 388.876 96.2745 364.673 71.7809C353.662 60.6375 344.99 56.6138 329.613 56.5154C326.943 55.6167 323.049 57.4659 322.183 57.1748C323.12 56.4186 323.126 56.6139 323.604 55.4719C326.642 53.8357 338.666 53.9842 342.541 55.1616C344.081 55.6298 349.178 57.8183 350 57.9369C352.229 57.7672 357.163 58.681 357.996 56.276C357.932 56.0086 357.863 55.7224 357.789 55.4171C356.615 54.8299 354.305 53.4044 353.483 52.5939Z"/><defs><linearGradient id="gradient_1" gradientUnits="userSpaceOnUse" x1="390.17496" y1="115.82806" x2="400.73929" y2="110.65136"><stop offset="0" stop-color="#42E4FA"/><stop offset="1" stop-color="#2FFDFF"/></linearGradient></defs><path fill="url(#gradient_1)" d="M366.99 58.8349C371.157 61.7753 375.884 67.1379 379.034 71.1425C398.094 95.3739 410.346 133.33 415.545 163.513C415.775 164.799 415.97 166.09 416.132 167.387L415.093 167.541C414.189 163.45 413.276 157.009 412.063 153.304C411.2 147.865 408.369 138.388 406.75 133.128C398.784 107.232 388.926 83.1658 369.688 63.5561C369.858 61.6296 367.445 60.9353 366.99 58.8349Z"/><defs><linearGradient id="gradient_2" gradientUnits="userSpaceOnUse" x1="415.67624" y1="213.87314" x2="419.54489" y2="213.88914"><stop offset="0" stop-color="#2ADDFE"/><stop offset="1" stop-color="#47BCEB"/></linearGradient></defs><path fill="url(#gradient_2)" d="M416.605 170.357C416.898 172.076 417.876 178.83 418.255 180.104C420.548 196.733 421.09 223.659 419.002 240.709C418.34 244.185 417.035 257.471 415.853 259.926C415.062 259.435 416.238 258.761 415.258 256.647C415.968 251.674 417.487 245.154 417.667 240.333C419.105 226.57 419.424 212.712 418.619 198.898C418.197 190.134 417.416 183.183 416.206 174.569C416.688 172.276 415.737 172.184 416.605 170.357Z"/><path fill="#2933C4" d="M418.215 199.302C418.019 199.509 417.819 199.713 417.616 199.913C416.884 198.999 417.225 197.797 417.063 196.551C416.84 194.829 416.013 192.319 416.126 190.654C416.359 187.239 417.085 185.76 417.079 182.128C416.803 182.318 416.781 182.328 416.493 182.476L416.083 182.075C415.775 181.051 415.612 181.059 415.822 180.079L416.104 180.027L416.416 180.454L416.571 180.282C416.488 177.147 416.305 177.895 415.396 175.295C415.233 174.829 415.528 171.1 415.092 169.826C412.881 167.846 414.782 168.456 414.433 166.707C413.567 162.365 412.757 157.959 411.746 153.656L412.063 153.304C413.276 157.009 414.189 163.45 415.093 167.541L416.132 167.387C416.293 168.346 416.494 169.399 416.605 170.357C415.737 172.184 416.688 172.276 416.206 174.569C417.416 183.183 418.197 190.134 418.619 198.898C419.424 212.712 419.105 226.57 417.667 240.333C417.487 239.864 417.39 239.367 417.38 238.865C417.369 238.139 417.489 237.095 417.564 236.346C418.279 231.118 418.154 225.812 418.426 220.607C418.724 214.907 419.037 209.511 417.748 203.854C417.153 201.24 418.039 201.535 418.215 199.302Z"/><path fill="#4FD8FD" d="M415.093 167.541L416.132 167.387C416.293 168.346 416.494 169.399 416.605 170.357C415.737 172.184 416.688 172.276 416.206 174.569C415.792 172.777 415.387 169.464 415.093 167.541Z"/><path fill="#47FDFE" d="M360.844 56.5667C363.364 56.1979 363.278 57.2073 365.307 57.6548C365.958 58.059 366.408 58.312 366.99 58.8349C367.445 60.9353 369.858 61.6296 369.688 63.5561C368.889 63.1926 362.179 57.545 360.844 56.5667Z"/><path fill="#3D09A0" d="M331.114 46.9875C336.581 46.9467 344.383 47.0621 349.485 49.3447L349.476 49.8796C350.091 50.1273 350.7 50.3868 351.304 50.658L350.946 50.9458C350.453 50.8868 350.125 50.8123 349.635 50.9113C350.924 51.459 352.207 52.0199 353.483 52.5939C354.305 53.4044 356.615 54.8299 357.789 55.4171C357.863 55.7224 357.932 56.0086 357.996 56.276C357.163 58.681 352.229 57.7672 350 57.9369C349.178 57.8183 344.081 55.6298 342.541 55.1616C338.666 53.9842 326.642 53.8357 323.604 55.4719C323.126 56.6139 323.12 56.4186 322.183 57.1748C323.049 57.4659 326.943 55.6167 329.613 56.5154C321.07 57.4346 318.108 58.939 310.568 62.865C297.766 69.5311 286.157 78.6662 271.903 82.0467C270.29 82.5339 268.347 82.9469 266.673 83.2291C242.595 87.2887 216.07 86.1437 195.219 72.1453C187.154 66.7304 177.365 61.6338 168.129 58.6284C166.769 58.186 165.277 57.9875 163.874 57.5516C162.568 55.9549 155.532 56.9325 154.378 55.9493C155.387 55.4349 160.143 55.3663 161.898 55.176C163.018 55.3353 163.57 55.391 164.705 55.4038C163.841 54.4087 149.483 53.1524 147.256 52.6344C146.399 52.6535 144.325 53.3287 143.745 53.8221C143.457 53.6724 143.27 53.4444 143.03 53.2101C142.023 49.2313 146.424 50.0497 149.112 48.8503L149.364 48.7359C148.187 48.8694 147.128 49.0062 145.96 49.1996C145.068 49.0679 144.932 48.9298 144.196 48.3899C146.126 48.0125 148.143 47.6845 150.086 47.3445C152.294 47.1017 154.475 47.146 156.694 47.1433C165.157 47.5556 171.656 49.806 179.302 53.316C182.404 54.8851 185.423 56.612 188.349 58.4899C190.069 59.5339 194.865 62.6686 196.382 63.3299C204.672 68.085 213.557 72.5382 223.045 73.9724C224.199 74.1469 225.179 74.537 226.372 74.6971C225.043 74.9638 222.617 73.8515 221.891 74.239C222.558 74.9286 225.674 75.4358 226.757 75.7272C227.394 75.75 230.463 76.3646 231.318 76.4959C242.228 78.1732 254.26 77.6734 265.059 75.5513C266.822 75.2048 271.403 74.2946 272.746 73.3245C275.042 72.7982 280.119 71.1302 282.085 69.9003L281.735 69.0893C288.443 66.5705 297.51 60.4356 303.761 56.6972C307.259 54.625 310.881 52.7718 314.609 51.1484C317.97 49.6502 321.506 48.2369 325.192 47.831C327.283 47.3429 328.994 47.1879 331.114 46.9875Z"/><path fill="#5D19BB" d="M147.256 52.6344C149.365 51.7937 157.513 51.0124 159.807 52.2015C161.427 52.8845 162.97 53.6616 164.507 54.5126C165.035 54.805 165.97 54.4845 166.545 54.7271C170.841 56.5406 175.104 58.3569 179.238 60.5269C180.556 61.2189 182.053 61.7773 183.344 62.5151C187.962 65.1534 192.314 68.2756 196.942 70.903C212.766 79.6767 228.84 83.2622 246.861 82.7237C256.125 82.4469 265.288 81.9309 274.199 79.1808C275.319 79.2681 276.565 79.417 277.67 79.4396C275.85 80.4061 272.971 80.9098 271.903 82.0467C270.29 82.5339 268.347 82.9469 266.673 83.2291C242.595 87.2887 216.07 86.1437 195.219 72.1453C187.154 66.7304 177.365 61.6338 168.129 58.6284C166.769 58.186 165.277 57.9875 163.874 57.5516C162.568 55.9549 155.532 56.9325 154.378 55.9493C155.387 55.4349 160.143 55.3663 161.898 55.176C163.018 55.3353 163.57 55.391 164.705 55.4038C163.841 54.4087 149.483 53.1524 147.256 52.6344Z"/><path fill="#2933C4" d="M274.199 79.1808C279.281 77.2926 286.317 74.2546 290.878 71.6239C306.389 62.6763 322.295 49.8821 341.476 54.4911C343.075 54.8753 349.323 56.8485 350 57.9369C349.178 57.8183 344.081 55.6298 342.541 55.1616C338.666 53.9842 326.642 53.8357 323.604 55.4719C323.126 56.6139 323.12 56.4186 322.183 57.1748C323.049 57.4659 326.943 55.6167 329.613 56.5154C321.07 57.4346 318.108 58.939 310.568 62.865C297.766 69.5311 286.157 78.6662 271.903 82.0467C272.971 80.9098 275.85 80.4061 277.67 79.4396C276.565 79.417 275.319 79.2681 274.199 79.1808Z"/><path fill="#E611DF" d="M150.086 47.3445C152.294 47.1017 154.475 47.146 156.694 47.1433C165.157 47.5556 171.656 49.806 179.302 53.316C182.404 54.8851 185.423 56.612 188.349 58.4899L187.577 59.3486C174.837 51.5215 164.484 47.2559 149.364 48.7359C148.187 48.8694 147.128 49.0062 145.96 49.1996C145.068 49.0679 144.932 48.9298 144.196 48.3899C146.126 48.0125 148.143 47.6845 150.086 47.3445Z"/><path fill="#758EF9" d="M325.192 47.831C326.683 48.5013 328.152 47.3401 329.492 47.8679C328.206 48.0599 326.923 48.275 325.644 48.5132L325.672 48.7399L325.915 48.8463C324.438 49.2582 322.916 49.5902 321.399 49.9942C308.028 53.5561 297.456 62.9088 285.029 68.5115C284.04 68.9575 283.049 69.421 282.085 69.9003L281.735 69.0893C288.443 66.5705 297.51 60.4356 303.761 56.6972C307.259 54.625 310.881 52.7718 314.609 51.1484C317.97 49.6502 321.506 48.2369 325.192 47.831Z"/><path fill="#875AE9" d="M188.349 58.4899C190.069 59.5339 194.865 62.6686 196.382 63.3299C204.672 68.085 213.557 72.5382 223.045 73.9724C224.199 74.1469 225.179 74.537 226.372 74.6971C225.043 74.9638 222.617 73.8515 221.891 74.239C222.558 74.9286 225.674 75.4358 226.757 75.7272C214.624 74.6645 197.747 65.8763 187.577 59.3486L188.349 58.4899Z"/><path fill="#4FD8FD" d="M331.114 46.9875C336.581 46.9467 344.383 47.0621 349.485 49.3447L349.476 49.8796C350.091 50.1273 350.7 50.3868 351.304 50.658L350.946 50.9458C350.453 50.8868 350.125 50.8123 349.635 50.9113C349.077 50.8525 344.754 49.4042 343.659 49.159C337.159 47.7049 332.386 47.9556 325.915 48.8463L325.672 48.7399L325.644 48.5132C326.923 48.275 328.206 48.0599 329.492 47.8679C328.152 47.3401 326.683 48.5013 325.192 47.831C327.283 47.3429 328.994 47.1879 331.114 46.9875Z"/><path fill="#3D09A0" d="M164.569 28.0394C178.384 29.714 191.387 38.3888 202.576 46.0077C204.712 47.4625 209.779 50.2196 211.498 51.6201L211.516 52.101C214.782 54.1461 218.167 55.9929 221.654 57.6316C222.947 58.2309 227.662 59.9236 228.03 60.9945C226.961 61.2052 215.266 55.7967 213.227 55.0274L213.012 55.421C209.604 54.8618 205.477 50.2961 203.066 49.6124C202.424 50.1929 202.705 50.7524 202.406 51.6026C202.433 51.5262 201.464 52.0924 201.271 52.2525C201.396 53.6026 202.461 53.8277 202.478 55.2416C201.974 55.5209 201.754 55.6256 201.304 56.0085C201.234 57.3342 202.895 58.3639 202.369 59.0945C200.368 61.8729 200.077 60.8876 200.18 64.5495L199.905 64.7622C198.375 64.4893 197.638 62.6759 196.382 63.3299C194.865 62.6686 190.069 59.5339 188.349 58.4899C185.423 56.612 182.404 54.8851 179.302 53.316C171.656 49.806 165.157 47.5556 156.694 47.1433C156.259 46.9138 153.069 46.8372 152.323 46.8017L156.295 46.75C154.811 45.879 151.198 44.4059 150.187 43.519C150.257 41.5777 151.48 41.9185 152.781 40.5084C155.961 37.0615 158.071 33.0712 160.584 29.181C160.827 28.8051 161.052 28.9339 161.501 28.9226C162.512 28.9102 163.725 28.6107 164.569 28.0394Z"/><path fill="#5D19BB" d="M156.295 46.75C154.811 45.879 151.198 44.4059 150.187 43.519C150.257 41.5777 151.48 41.9185 152.781 40.5084C155.961 37.0615 158.071 33.0712 160.584 29.181C160.827 28.8051 161.052 28.9339 161.501 28.9226C159.181 32.4957 157.102 36.259 155.171 40.0376C153.739 42.837 153.936 43.5352 156.35 44.9708C159.796 47.0209 177.789 50.2061 179.302 53.316C171.656 49.806 165.157 47.5556 156.694 47.1433C156.259 46.9138 153.069 46.8372 152.323 46.8017L156.295 46.75Z"/><path fill="#077ADE" d="M331.114 46.9875C343.411 44.721 351.454 45.897 362.397 51.992C368.785 55.5503 371.294 55.8576 375.362 62.7579C376.13 64.0603 380.009 66.7188 380.777 68.3498C382.695 70.8754 385.427 72.1472 387.604 75.1266L387.496 75.6965L387.61 75.6339L386.911 75.7667C386.928 76.2643 387.198 76.487 387.52 76.8844C387.443 77.4777 387.415 77.5208 387.219 78.0577C387.598 80.4469 390.28 81.5224 390.653 82.5691C392.03 86.4394 392.368 87.3796 395.08 90.4038C396.468 91.9514 398.285 97.0857 399.4 99.0245C399.784 99.9906 399.988 102.529 400.283 103.554C400.96 105.905 401.919 104.993 400.959 107.424L400.677 107.308C400.437 106.239 400.447 105.873 400.441 104.813L400.086 104.671C399.689 106.04 400.428 105.478 400.223 106.373C399.639 108.924 401.969 110.431 402.223 112.88C402.385 115.235 405.773 117.22 406.66 118.82C407.802 120.878 408.242 124.306 409.353 126.495C409.645 127.069 409.075 127.934 409.003 128.46L408.543 128.454C408.208 127.946 408.215 127.74 408.114 127.151L407.872 127.046C408.27 127.892 407.956 128.371 408.163 128.826C409.69 132.182 409.896 135.621 410.779 139.109C413.35 149.256 415.572 159.471 417.145 169.826C417.563 172.561 418.605 177.447 418.255 180.104C417.876 178.83 416.898 172.076 416.605 170.357C416.494 169.399 416.293 168.346 416.132 167.387C415.97 166.09 415.775 164.799 415.545 163.513C410.346 133.33 398.094 95.3739 379.034 71.1425C375.884 67.1379 371.157 61.7753 366.99 58.8349C366.408 58.312 365.958 58.059 365.307 57.6548C363.278 57.2073 363.364 56.1979 360.844 56.5667C358.387 55.425 356.773 53.8994 353.483 52.5939C352.207 52.0199 350.924 51.459 349.635 50.9113C350.125 50.8123 350.453 50.8868 350.946 50.9458L351.304 50.658C350.7 50.3868 350.091 50.1273 349.476 49.8796L349.485 49.3447C344.383 47.0621 336.581 46.9467 331.114 46.9875Z"/><path fill="#2BE1F5" d="M349.485 49.3447C353.77 50.7145 362.206 54.5438 365.307 57.6548C363.278 57.2073 363.364 56.1979 360.844 56.5667C358.387 55.425 356.773 53.8994 353.483 52.5939C352.207 52.0199 350.924 51.459 349.635 50.9113C350.125 50.8123 350.453 50.8868 350.946 50.9458L351.304 50.658C350.7 50.3868 350.091 50.1273 349.476 49.8796L349.485 49.3447Z"/><path fill="#077ADE" d="M419.002 240.709C419.379 243.231 418.754 246.553 418.45 249.068C417.215 259.313 414.592 269.053 410.948 278.695C410.35 280.279 410.191 282.27 409.405 283.815C407.028 289.004 400.939 295.99 398.941 301.023L399.205 301.162C400.021 300.797 402.036 297.851 403.875 296.566L404.043 296.742C401.167 302.328 398.49 305.33 393.17 308.579C390.367 310.29 388.221 312.912 384.848 313.966C382.999 314.545 382.421 312.361 380.447 313.303C376.502 314.507 371.238 316.202 367.163 315.001C370.758 314.907 377.987 314.23 381.064 312.341L380.935 311.973C382.55 311.138 385.84 309.944 387.016 309.002L387.05 308.432C386.33 308.777 386.052 308.897 385.252 308.914C385.717 308.684 386.122 308.37 386.546 308.068C389.367 306.484 393.008 302.876 395.195 300.459C406.472 287.995 411.463 272.626 415.258 256.647C416.238 258.761 415.062 259.435 415.853 259.926C417.035 257.471 418.34 244.185 419.002 240.709Z"/><path fill="#2BE1F5" d="M415.258 256.647C416.238 258.761 415.062 259.435 415.853 259.926C412.873 278.767 399.907 305.017 381.064 312.341L380.935 311.973C382.55 311.138 385.84 309.944 387.016 309.002L387.05 308.432C386.33 308.777 386.052 308.897 385.252 308.914C385.717 308.684 386.122 308.37 386.546 308.068C389.367 306.484 393.008 302.876 395.195 300.459C406.472 287.995 411.463 272.626 415.258 256.647Z"/><path fill="#2933C4" d="M211.498 51.6201L211.702 51.7148C215.197 53.3734 218.599 55.7989 222.267 57.4539C234.9 63.1539 249.936 63.1533 262.95 58.5838C264.073 58.1876 265.189 57.7726 266.297 57.3393L266.565 57.5011L266.635 57.8161C262.983 58.5562 261.498 60.5427 257.378 60.7319L257.375 61.0216L258.024 60.9994C259.468 62.6879 260.111 62.2417 261.936 61.3985C262.893 60.9566 266.328 59.9197 267.152 60.1722C267.09 60.1986 267.027 60.225 266.964 60.2514C255.952 63.6095 244.515 67.01 232.953 63.943C230.812 63.3752 226.872 62.8336 224.965 61.7736C220.769 59.4406 217.483 57.3242 213.012 55.421L213.227 55.0274C215.266 55.7967 226.961 61.2052 228.03 60.9945C227.662 59.9236 222.947 58.2309 221.654 57.6316C218.167 55.9929 214.782 54.1461 211.516 52.101L211.498 51.6201Z"/><path fill="#1198EA" d="M385.252 308.914C386.052 308.897 386.33 308.777 387.05 308.432L387.016 309.002C385.84 309.944 382.55 311.138 380.935 311.973L381.064 312.341C377.987 314.23 370.758 314.907 367.163 315.001C364.013 314.672 361.492 314.272 358.537 313.086C357.793 312.201 354.074 310.904 352.56 310.093C354.227 309.715 356.985 311.983 359.309 312.074C360.3 312.182 363.352 313.077 365.206 313.274C373.582 314.168 378.146 312.144 385.252 308.914Z"/><path fill="#035CC2" d="M358.537 313.086C356.495 312.737 350.018 310.13 349.381 308.109L349.641 308.016C351.103 308.352 357.973 311.264 359.309 312.074C356.985 311.983 354.227 309.715 352.56 310.093C354.074 310.904 357.793 312.201 358.537 313.086Z"/><path fill="#2933C4" d="M272.746 73.3245C272.863 73.121 272.98 72.9175 273.098 72.714C274.62 72.0082 280.493 69.4517 281.735 69.0893L282.085 69.9003C280.119 71.1302 275.042 72.7982 272.746 73.3245Z"/><defs><linearGradient id="gradient_3" gradientUnits="userSpaceOnUse" x1="50.738945" y1="201.93295" x2="156.5768" y2="190.09908"><stop offset="0" stop-color="#D50067"/><stop offset="1" stop-color="#8C03A7"/></linearGradient></defs><path fill="url(#gradient_3)" d="M95.7601 61.4212C99.7148 55.8409 104.286 51.4566 109.062 46.6433C123.685 31.9048 143.808 24.3196 164.569 28.0394C163.725 28.6107 162.512 28.9102 161.501 28.9226C161.052 28.9339 160.827 28.8051 160.584 29.181C158.071 33.0712 155.961 37.0615 152.781 40.5084C151.48 41.9185 150.257 41.5777 150.187 43.519C151.198 44.4059 154.811 45.879 156.295 46.75L152.323 46.8017C153.069 46.8372 156.259 46.9138 156.694 47.1433C154.475 47.146 152.294 47.1017 150.086 47.3445C148.143 47.6845 146.126 48.0125 144.196 48.3899C144.932 48.9298 145.068 49.0679 145.96 49.1996C147.128 49.0062 148.187 48.8694 149.364 48.7359L149.112 48.8503C146.424 50.0497 142.023 49.2313 143.03 53.2101C143.27 53.4444 143.457 53.6724 143.745 53.8221C144.325 53.3287 146.399 52.6535 147.256 52.6344C149.483 53.1524 163.841 54.4087 164.705 55.4038C163.57 55.391 163.018 55.3353 161.898 55.176C160.143 55.3663 155.387 55.4349 154.378 55.9493C155.532 56.9325 162.568 55.9549 163.874 57.5516C149.975 56.2379 141.275 58.0469 130.182 67.1799C125.892 70.7119 121.814 74.6278 118.371 79.0338C105.721 95.2256 95.7358 118.919 90.0392 138.687C88.6895 143.476 87.4407 148.293 86.2936 153.135C85.7979 155.195 85.0263 158.975 84.4031 160.882C82.9512 169.603 80.8715 178.291 80.1409 187.15C77.6984 216.765 77.0968 248.614 88.6428 276.559C94.0752 289.706 103.549 305.763 118.967 308.157C126.213 309.282 133.096 308.542 139.025 304.129C143.606 301.066 147.034 296.449 150.648 293.747C153.268 290.406 159.896 285.793 164.329 288.383C165.348 288.824 165.559 289.069 166.346 289.798C168.043 291.963 169.848 295.649 169.288 298.429C168.137 304.139 158.476 315.44 153.784 318.46C151.141 322.835 133.302 331.179 127.625 331.781C83.1534 336.498 60.904 288.719 56.0279 251.675C49.742 203.921 56.3771 152.99 72.2623 107.622C78.1933 90.7611 84.9562 75.7787 95.7601 61.4212Z"/><defs><linearGradient id="gradient_4" gradientUnits="userSpaceOnUse" x1="122.24571" y1="65.533302" x2="118.60802" y2="63.19416"><stop offset="0" stop-color="#C700BE"/><stop offset="1" stop-color="#EA13D8"/></linearGradient></defs><path fill="url(#gradient_4)" d="M121.653 61.4372C124.697 59.529 126.889 57.4772 130.581 55.345C129.531 57.3882 126.576 57.619 126.879 60.4832C125.3 63.4686 124.201 64.5111 121.75 66.8013C121.286 67.2352 120.888 67.9395 120.339 68.3166C119.793 68.0382 119.612 67.8007 119.043 68.0851C117.402 68.9057 114.944 69.874 113.386 70.6754L112.697 70.5281C114.46 67.8612 119.179 63.553 121.653 61.4372Z"/><path fill="#E611DF" d="M95.7601 61.4212C99.7148 55.8409 104.286 51.4566 109.062 46.6433C123.685 31.9048 143.808 24.3196 164.569 28.0394C163.725 28.6107 162.512 28.9102 161.501 28.9226C161.052 28.9339 160.827 28.8051 160.584 29.181C158.071 33.0712 155.961 37.0615 152.781 40.5084C151.48 41.9185 150.257 41.5777 150.187 43.519C151.198 44.4059 154.811 45.879 156.295 46.75L152.323 46.8017C153.069 46.8372 156.259 46.9138 156.694 47.1433C154.475 47.146 152.294 47.1017 150.086 47.3445C148.143 47.6845 146.126 48.0125 144.196 48.3899C144.932 48.9298 145.068 49.0679 145.96 49.1996C141.874 49.9401 134.036 52.9586 130.581 55.345C126.889 57.4772 124.697 59.529 121.653 61.4372L120.867 60.5704C117.077 63.56 114.785 65.8058 111.738 69.5735C110.543 71.0424 109.376 72.5345 108.238 74.049C105.104 78.6042 102.076 83.0039 99.4481 87.892C96.5471 93.2875 94.2565 98.9329 91.6872 104.445L91.2161 104.545C88.9915 106.449 77.6664 141.876 77.391 145.955L76.9686 146.193C76.7535 143.264 78.8228 137.205 79.6529 134.07C81.3136 127.799 82.4846 121.612 84.5595 115.424C88.4238 103.902 94.5045 93.3282 97.0899 81.3906C97.4216 79.8593 98.7632 78.462 98.7753 76.3756C98.1917 76.7774 95.3573 83.1985 94.8568 84.3287C94.3806 85.1673 92.981 88.4276 92.915 88.5225C93.6859 86.1351 93.4663 82.0231 94.2412 79.1884C95.4636 74.628 97.8302 70.7722 97.5453 65.8573C97.4172 63.6467 96.1182 62.7946 95.7601 61.4212Z"/><path fill="#9900C5" d="M95.7601 61.4212C99.7148 55.8409 104.286 51.4566 109.062 46.6433C123.685 31.9048 143.808 24.3196 164.569 28.0394C163.725 28.6107 162.512 28.9102 161.501 28.9226C161.052 28.9339 160.827 28.8051 160.584 29.181C158.071 33.0712 155.961 37.0615 152.781 40.5084C151.48 41.9185 150.257 41.5777 150.187 43.519C151.198 44.4059 154.811 45.879 156.295 46.75L152.323 46.8017C153.069 46.8372 156.259 46.9138 156.694 47.1433C154.475 47.146 152.294 47.1017 150.086 47.3445C148.072 47.2327 146.587 46.384 144.229 46.2348C140.231 45.9818 135.609 47.6892 131.936 47.6877C127.01 47.5214 122.766 46.1002 117.996 45.5818C117.121 45.4868 112.729 50.0404 111.613 50.7721C109.186 52.4273 104.998 53.8065 103.115 55.9848C100.939 58.5007 101.961 62.838 100.912 66.2226C99.2887 71.4639 94.8438 79.0018 94.8568 84.3287C94.3806 85.1673 92.981 88.4276 92.915 88.5225C93.6859 86.1351 93.4663 82.0231 94.2412 79.1884C95.4636 74.628 97.8302 70.7722 97.5453 65.8573C97.4172 63.6467 96.1182 62.7946 95.7601 61.4212Z"/><path fill="#B814D1" d="M131.936 47.6877C135.609 47.6892 140.231 45.9818 144.229 46.2348C146.587 46.384 148.072 47.2327 150.086 47.3445C148.143 47.6845 146.126 48.0125 144.196 48.3899C142.587 48.7721 140.979 49.1175 139.421 49.6732L139.057 49.2394C139.477 48.8431 140.138 48.7854 140.775 48.6227C138.537 48.0446 131.12 50.3704 128.548 51.0768L128.356 50.9035C129.488 50.077 130.66 49.4501 131.879 48.7654L131.83 48.5025L130.892 48.3062C131.605 48.2381 132.262 48.2059 132.978 48.1752L131.936 47.6877Z"/><path fill="#F46AF4" d="M139.421 49.6732C140.979 49.1175 142.587 48.7721 144.196 48.3899C144.932 48.9298 145.068 49.0679 145.96 49.1996C141.874 49.9401 134.036 52.9586 130.581 55.345C126.889 57.4772 124.697 59.529 121.653 61.4372L120.867 60.5704C124.6 57.036 134.445 51.5375 139.421 49.6732Z"/><path fill="#B814D1" d="M84.4031 160.882C83.6314 158.299 87.1065 151.408 86.2823 148.363C86.1499 147.875 86.0735 146.526 86.0068 145.939C85.4479 147.847 84.9161 151.399 84.2253 153.081C84.2476 152.111 84.6452 149.891 84.8916 148.919C87.1888 139.857 89.8184 131.132 93.1301 122.397C95.266 116.764 97.1806 111.196 99.7249 105.695C101.446 101.938 103.428 98.568 105.451 94.9471C114.22 79.2497 126.481 63.2345 143.619 56.2702C148.103 54.448 157.273 54.0861 161.898 55.176C160.143 55.3663 155.387 55.4349 154.378 55.9493C155.532 56.9325 162.568 55.9549 163.874 57.5516C149.975 56.2379 141.275 58.0469 130.182 67.1799C125.892 70.7119 121.814 74.6278 118.371 79.0338C105.721 95.2256 95.7358 118.919 90.0392 138.687C88.6895 143.476 87.4407 148.293 86.2936 153.135C85.7979 155.195 85.0263 158.975 84.4031 160.882Z"/><defs><linearGradient id="gradient_5" gradientUnits="userSpaceOnUse" x1="68.91436" y1="223.55276" x2="89.123001" y2="223.65733"><stop offset="0" stop-color="#F317B4"/><stop offset="1" stop-color="#F755FF"/></linearGradient></defs><path fill="url(#gradient_5)" d="M73.0117 166.881C73.9855 164.361 76.4232 148.538 77.967 146.917C77.8608 148.108 77.0312 149.826 78.1581 150.484C69.3053 194.215 63.7125 255.479 89.089 294.57C88.9846 295.072 88.8231 295.995 88.6722 296.445C82.4251 288.803 77.0647 274.786 74.6091 265.363C73.4721 261 72.5463 256.338 71.479 251.919C71.3591 250.268 70.8445 247.772 70.5944 246.019C66.7589 219.13 68.632 193.672 73.0117 166.881Z"/><path fill="#E613BB" d="M94.8568 84.3287C95.3573 83.1985 98.1917 76.7774 98.7753 76.3756C98.7632 78.462 97.4216 79.8593 97.0899 81.3906C94.5045 93.3282 88.4238 103.902 84.5595 115.424C82.4846 121.612 81.3136 127.799 79.6529 134.07C78.8228 137.205 76.7535 143.264 76.9686 146.193L77.391 145.955C77.6664 141.876 88.9915 106.449 91.2161 104.545L91.6872 104.445C89.5678 109.918 87.3174 115.142 85.5257 120.748L86.2161 121.925C84.3293 127.512 82.5025 133.08 80.9931 138.782C80.7377 139.747 80.4727 140.834 80.1664 141.777C79.7731 143.984 78.7765 148.311 78.1581 150.484C77.0312 149.826 77.8608 148.108 77.967 146.917C76.4232 148.538 73.9855 164.361 73.0117 166.881C72.4547 163.937 74.4572 156.702 74.6713 153.401C75.1359 146.239 76.4696 139.536 78.4947 132.669C79.1703 130.517 79.1254 127.029 80.0377 125.072C82.8725 118.991 83.6794 112.058 86.6282 106.171C89.3475 100.742 89.9536 94.6443 92.5529 89.2837C92.7303 88.918 92.7808 88.9859 92.915 88.5225C92.981 88.4276 94.3806 85.1673 94.8568 84.3287Z"/><path fill="#F0ADFD" d="M85.5257 120.748L86.2161 121.925C84.3293 127.512 82.5025 133.08 80.9931 138.782C80.7377 139.747 80.4727 140.834 80.1664 141.777L79.9643 141.855C79.6204 142.877 79.352 143.744 79.0718 144.785L78.8551 144.668C78.5184 142.133 84.0618 124.245 85.5257 120.748Z"/><path fill="#E50083" d="M71.479 251.919C72.5463 256.338 73.4721 261 74.6091 265.363C77.0647 274.786 82.4251 288.803 88.6722 296.445L89.0678 297.043C89.5825 297.705 90.9637 299.4 91.3336 300.031C93.3006 302.141 95.294 304.225 97.3134 306.284L98.7892 307.791L98.6395 307.827C99.0743 308.416 99.5725 308.984 99.7908 309.668L99.3185 309.627C96.5421 307.113 91.7438 305.414 89.6542 301.795C87.6849 298.384 77.9889 284.762 77.4746 281.823L77.6817 281.547C78.0433 282.407 78.6916 283.802 79.5212 284.255C80.0118 283.826 79.8676 283.74 80.0067 282.895C78.7064 281.843 78.807 281.948 79.207 280.414C77.9981 279 76.9537 275.993 76.2273 274.185L76.2287 274.379C76.0908 274.115 73.6744 267.118 73.6851 266.79C73.8002 263.272 72.5743 261.087 71.8046 257.754C71.6046 256.888 71.5843 253.161 71.479 251.919Z"/><path fill="#E613BB" d="M89.0678 297.043C89.5825 297.705 90.9637 299.4 91.3336 300.031C93.3006 302.141 95.294 304.225 97.3134 306.284L98.7892 307.791L98.6395 307.827C96.7704 307.345 94.0341 305.609 92.7205 304.161C91.0683 302.744 88.9328 299.238 89.0678 297.043Z"/><path fill="#F0ADFD" d="M120.867 60.5704L121.653 61.4372C119.179 63.553 114.46 67.8612 112.697 70.5281L112.58 70.509C111.608 71.8102 110.503 73.2209 109.578 74.5379C105.95 79.7643 100.199 88.5155 97.6848 94.3405C93.2301 103.007 89.417 112.73 86.2161 121.925L85.5257 120.748C87.3174 115.142 89.5678 109.918 91.6872 104.445C94.2565 98.9329 96.5471 93.2875 99.4481 87.892C102.076 83.0039 105.104 78.6042 108.238 74.049C109.376 72.5345 110.543 71.0424 111.738 69.5735C114.785 65.8058 117.077 63.56 120.867 60.5704Z"/><path fill="#E613BB" d="M112.697 70.5281L113.386 70.6754C114.944 69.874 117.402 68.9057 119.043 68.0851C119.612 67.8007 119.793 68.0382 120.339 68.3166C117.149 71.7535 113.578 74.5832 110.798 78.5246C109.174 80.8273 108.029 83.3354 106.166 85.4274C105.14 86.5487 102.375 87.8271 101.151 89.0137C99.7649 90.3569 99.2919 93.6186 97.6848 94.3405C100.199 88.5155 105.95 79.7643 109.578 74.5379C110.503 73.2209 111.608 71.8102 112.58 70.509L112.697 70.5281Z"/><path fill="#9900C5" d="M145.96 49.1996C147.128 49.0062 148.187 48.8694 149.364 48.7359L149.112 48.8503C146.424 50.0497 142.023 49.2313 143.03 53.2101C143.27 53.4444 143.457 53.6724 143.745 53.8221C141.359 55.0086 140.951 56.218 139.078 57.8029C137.982 58.7306 136.317 58.8741 134.995 60.1113L134.693 60.0461C135.88 57.9148 138.909 59.1598 138.878 54.4098C135.94 54.6459 132.484 59.5473 129.837 59.8264C130.304 58.8202 131.822 58.1162 132.088 57.3857C131.49 57.5766 127.861 59.9314 126.879 60.4832C126.576 57.619 129.531 57.3882 130.581 55.345C134.036 52.9586 141.874 49.9401 145.96 49.1996Z"/><path fill="#5D19BB" d="M166.346 289.798C168.043 291.963 169.848 295.649 169.288 298.429C168.137 304.139 158.476 315.44 153.784 318.46C154.657 316.063 159.197 313.212 160.811 310.735C162.109 308.745 161.199 307.666 162.127 305.558C163.345 302.792 165.142 299.528 165.772 296.586C166.178 294.693 167.063 296.079 168.353 294.853C168.294 293.503 166.586 291.814 166.346 289.798Z"/><path fill="#E613BB" d="M98.9754 305.668C103.728 309.232 105.797 310.492 111.28 312.585C109.432 312.803 106.165 310.683 104.053 310.299C104.941 311.02 106.585 311.865 107.638 312.45L107.471 312.458C114.352 315.784 116.597 314.948 123.255 315.519C117.149 316.151 113.231 318.715 107.232 315.161C104.716 313.67 102.401 310.182 99.7908 309.668C99.5725 308.984 99.0743 308.416 98.6395 307.827L98.7892 307.791L97.3134 306.284C98.1606 306.168 98.2785 306.154 98.9754 305.668Z"/><path fill="#E611DF" d="M140.868 307.481C137.962 311.285 127.857 315.521 123.255 315.519C116.597 314.948 114.352 315.784 107.471 312.458L107.638 312.45C106.585 311.865 104.941 311.02 104.053 310.299C106.165 310.683 109.432 312.803 111.28 312.585C123.334 316.196 130.502 312.747 140.868 307.481Z"/><path fill="#F46AF4" d="M89.089 294.57C92.4407 298.974 94.7436 302.07 98.9754 305.668C98.2785 306.154 98.1606 306.168 97.3134 306.284C95.294 304.225 93.3006 302.141 91.3336 300.031C90.9637 299.4 89.5825 297.705 89.0678 297.043L88.6722 296.445C88.8231 295.995 88.9846 295.072 89.089 294.57Z"/><path fill="#9900C5" d="M150.648 293.747C153.268 290.406 159.896 285.793 164.329 288.383L164.1 288.379C162.471 288.34 161.615 288.013 159.872 288.04C159.633 288.482 159.637 288.507 159.515 288.999C158.781 289.37 157.836 288.969 157.676 289.043C155.699 289.966 152.227 292.714 150.889 294.286L150.648 293.747Z"/><defs><linearGradient id="gradient_6" gradientUnits="userSpaceOnUse" x1="231.20091" y1="171.89008" x2="265.26624" y2="213.64973"><stop offset="0" stop-color="#9C23D8"/><stop offset="1" stop-color="#1F5DF1"/></linearGradient></defs><path fill="url(#gradient_6)" d="M198.836 138.106C198.622 132.958 198.202 125.098 201.34 120.914C208.214 111.752 217.866 115.113 225.753 120.558C228.296 121.843 231.434 123.838 233.928 125.319L246.183 132.478L263.367 142.586C265.807 144.018 269.326 145.882 271.57 147.35L289.504 157.644C293.267 159.828 298.776 162.736 301.831 165.642C307.827 171.344 306.343 182.963 299.094 187.02C295.51 189.143 292.124 191.128 288.583 193.148L269.49 204.067L239.463 221.386C227.666 228.248 206.669 245.144 199.619 223.542C198.419 219.867 199.08 211.473 198.941 207.365C198.827 203.997 198.816 199.312 198.98 195.919C198.588 191.86 198.863 181.213 198.855 176.819L198.836 138.106Z"/><defs><linearGradient id="gradient_7" gradientUnits="userSpaceOnUse" x1="204.83102" y1="135.66345" x2="237.39386" y2="175.33458"><stop offset="0" stop-color="#F500D9"/><stop offset="1" stop-color="#9027D7"/></linearGradient></defs><path fill="url(#gradient_7)" d="M198.836 138.106C198.622 132.958 198.202 125.098 201.34 120.914C208.214 111.752 217.866 115.113 225.753 120.558C228.296 121.843 231.434 123.838 233.928 125.319L246.183 132.478L263.367 142.586C265.807 144.018 269.326 145.882 271.57 147.35C270.845 148.187 271.057 148.071 269.799 148.019C268.181 149.239 266.519 151.292 265.101 152.257C245.844 165.38 229.2 181.988 210 195.178C208.327 196.327 201.256 200.26 199.7 197.469C199.398 196.927 199.593 196.647 198.98 195.919C198.588 191.86 198.863 181.213 198.855 176.819L198.836 138.106Z"/><path fill="#E611DF" d="M198.836 138.106C198.622 132.958 198.202 125.098 201.34 120.914C208.214 111.752 217.866 115.113 225.753 120.558C224.699 121.151 224.679 120.979 223.55 120.952L223.23 120.942C222.231 121.878 222.166 122.603 221.41 123.428C220.798 124.095 219.06 124.861 218.397 125.648C216.084 128.391 213.584 130.798 211.07 133.348C209.335 135.108 207.445 137.708 205.433 139.033C204.261 139.805 201.353 140.693 199.887 141.167L199.897 141.443C199.96 143.596 199.28 143.147 199.209 144.896C198.675 142.783 199.477 140.298 198.836 138.106Z"/><path fill="#3D09A0" d="M218.711 266.474C220.487 266.176 222.305 266.087 224.102 265.97C234.676 265.276 245.352 265.321 255.931 265.914C258.533 266.06 261.804 266.081 264.346 266.482C265.791 267.484 265.514 266.27 265.79 268.029C266.366 271.695 259.733 277.553 260.586 279.956C259.259 279.837 256.149 279.407 255.02 280.008L254.253 280.343C254.352 280.64 254.444 280.889 254.558 281.18C253.175 282.291 252.344 281.325 251.173 282.403L251.536 282.826L251.365 283.291L251 282.989C250.18 283.611 248.877 283.366 247.638 283.359C248.149 283.545 250.199 283.599 250.848 283.632C249.242 283.709 243.083 283.407 242.317 283.92C228.5 284.253 219.827 284.968 206.324 288.235C201.366 289.435 186.426 294.049 182.686 294.101C180.775 294.74 176.874 293.619 175.397 292.202C173.719 291.156 172.737 289.546 171.931 287.798C171.638 286.981 171.36 286.18 171.272 285.311C171.028 282.899 171.896 280.524 173.449 278.687C179.269 271.8 208.898 267.269 218.711 266.474Z"/><path fill="#5D19BB" d="M255.02 280.008L254.253 280.343C254.352 280.64 254.444 280.889 254.558 281.18C253.175 282.291 252.344 281.325 251.173 282.403L251.536 282.826L251.365 283.291L251 282.989C250.18 283.611 248.877 283.366 247.638 283.359C248.149 283.545 250.199 283.599 250.848 283.632C249.242 283.709 243.083 283.407 242.317 283.92C228.5 284.253 219.827 284.968 206.324 288.235C201.366 289.435 186.426 294.049 182.686 294.101C182.545 293.84 182.455 293.284 182.767 293.129C205.073 282.038 230.63 280.144 255.02 280.008Z"/><defs><linearGradient id="gradient_8" gradientUnits="userSpaceOnUse" x1="191.81316" y1="270.16251" x2="195.42075" y2="279.25577"><stop offset="0" stop-color="#AB26EF"/><stop offset="1" stop-color="#7305A1"/></linearGradient></defs><path fill="url(#gradient_8)" d="M171.931 287.798C171.638 286.981 171.36 286.18 171.272 285.311C171.028 282.899 171.896 280.524 173.449 278.687C179.269 271.8 208.898 267.269 218.711 266.474L220.199 266.676L219.894 266.723C218.367 266.968 217.859 267.064 216.897 268.323C217.497 268.879 219.818 267.884 220.745 267.76L220.905 267.916C220.472 268.218 220.3 268.296 219.752 268.392C210.449 270.023 200.973 271.486 191.844 273.961C187.786 275.041 177.413 277.986 175.285 281.721L175.519 281.935L176.316 281.857C175.232 284.355 175.041 286.11 173.07 288.138C172.507 288.288 172.634 288.197 171.931 287.798Z"/><path fill="#5D19BB" d="M171.931 287.798C172.634 288.197 172.507 288.288 173.07 288.138C175.041 286.11 175.232 284.355 176.316 281.857L175.519 281.935L175.285 281.721C177.413 277.986 187.786 275.041 191.844 273.961C189.369 276.278 181.592 276.394 179.483 279.749C178.205 281.783 177.927 284.529 176.951 286.717C176.335 288.093 174.426 288.736 173.938 290.008C174.592 291.315 175.116 290.871 175.397 292.202C173.719 291.156 172.737 289.546 171.931 287.798Z"/></svg>